# xmcd
#
# Track frame offsets:
# 150
# 6107
# 15027
# 21808
# 25332
# 37610
# 55652
# 67478
# 77436
# 90513
# 107807
# 117852
#
# Disc length: 1787 seconds
#
#
# Revision: 0
# Processed by: cddbd v1.5.2PL0 Copyright (c) Steve Scherf et al.
# Submitted via: FreeRIP 2.944 
#
DISCID=7e06f90c
DTITLE=Doc Watson - Rambling hobo - cd1
DYEAR=2009
DGENRE=Acoustic
TTITLE0=Doc Watson - Doc's guitar
TTITLE1=Doc Watson - In the pines
TTITLE2=Doc Watson - Mama blues
TTITLE3=Doc Watson - Sally Goodin
TTITLE4=Doc Watson - Am I born to die
TTITLE5=Doc Watson - What would you give in exchange for your soul
TTITLE6=Doc Watson - Tom Dooley
TTITLE7=Doc Watson - Little stream of whiskey
TTITLE8=Doc Watson - Worried blues
TTITLE9=Doc Watson - Doc's talkin' blues
TTITLE10=Doc Watson - Liza Jane
TTITLE11=Doc Watson - Midnight on the stormy deep
EXTD=CD1/3
EXTT0=
EXTT1=
EXTT2=
EXTT3=
EXTT4=
EXTT5=
EXTT6=
EXTT7=
EXTT8=
EXTT9=
EXTT10=
EXTT11=
PLAYORDER=
